<svg width="44" height="32" viewBox="0 0 44 32" fill="none" xmlns="http://www.w3.org/2000/svg">
<g clip-path="url(#clip0)">
<path fill-rule="evenodd" clip-rule="evenodd" d="M42.3001 1H1.69891C1.51324 1.00013 1.33521 1.07206 1.20396 1.19999C1.07272 1.32793 0.998993 1.50136 0.998993 1.68222V30.3177C0.998993 30.4986 1.07272 30.672 1.20396 30.7999C1.33521 30.9279 1.51324 30.9998 1.69891 30.9999H42.3001C42.4857 30.9998 42.6638 30.9279 42.795 30.7999C42.9263 30.672 43 30.4986 43 30.3177V1.68222C43 1.50136 42.9263 1.32793 42.795 1.19999C42.6638 1.07206 42.4857 1.00013 42.3001 1ZM41.5996 2.3645V7.13549H29.6521C27.5125 5.3735 24.8013 4.40673 21.9995 4.40673C19.1977 4.40673 16.4865 5.3735 14.3469 7.13549H2.39932V2.3645H41.5996ZM41.5996 23.5H31.0607C31.0648 23.4954 31.0685 23.4906 31.072 23.4856C31.2493 23.2852 31.4148 23.0706 31.576 22.8559C31.6294 22.7843 31.6852 22.7176 31.7371 22.646C31.8841 22.4408 32.0197 22.2309 32.153 22.0162C32.2088 21.9303 32.2661 21.8397 32.3195 21.7538C32.4414 21.5439 32.5541 21.3339 32.6623 21.1192C32.7148 21.0143 32.7672 20.9093 32.8166 20.8043C32.9146 20.5992 33.0057 20.3845 33.0919 20.1698C33.1409 20.0505 33.185 19.9265 33.229 19.8024C33.3025 19.5973 33.3721 19.3922 33.4343 19.1822C33.4778 19.0343 33.5146 18.8864 33.5528 18.7385C33.6018 18.5477 33.6483 18.3569 33.687 18.1612C33.7257 17.9656 33.7521 17.7653 33.7801 17.5696C33.8016 17.4122 33.829 17.2595 33.8452 17.1021C33.88 16.7347 33.901 16.3673 33.901 16C33.901 15.6326 33.88 15.2652 33.8437 14.8978C33.8285 14.7404 33.8011 14.5877 33.7786 14.4303C33.7507 14.2347 33.7242 14.0343 33.6855 13.8387C33.6468 13.6431 33.5993 13.4523 33.5513 13.2614C33.5131 13.1135 33.4769 12.9656 33.4328 12.8177C33.3711 12.6078 33.301 12.3979 33.2276 12.1927C33.1835 12.0735 33.1389 11.9494 33.0904 11.8301C33.0052 11.6154 32.9141 11.4008 32.8156 11.1956C32.7667 11.0906 32.7133 10.9857 32.6609 10.8807C32.5516 10.666 32.439 10.4561 32.318 10.2461C32.2646 10.1555 32.2073 10.0696 32.1515 9.97898C32.0178 9.76906 31.8826 9.55911 31.7356 9.35395C31.6867 9.28239 31.6279 9.21562 31.5745 9.14406C31.4124 8.92936 31.2478 8.71469 31.0705 8.51431L31.0592 8.49999H41.6021V23.5H41.5996ZM29.0031 23.6002C27.0839 25.2923 24.5876 26.2294 21.999 26.2294C19.4104 26.2294 16.9141 25.2923 14.9949 23.6002C14.7632 23.395 14.5419 23.1851 14.3312 22.9656C14.2823 22.9179 14.2387 22.8702 14.1926 22.8177C13.9938 22.603 13.8057 22.3788 13.6269 22.1498C13.5853 22.0973 13.5432 22.0448 13.5015 21.9876C13.3262 21.7538 13.1621 21.5057 13.0083 21.2576C12.976 21.2051 12.9417 21.1574 12.9103 21.1001C12.7556 20.8425 12.6165 20.5754 12.4837 20.3034C12.4622 20.2557 12.4377 20.2127 12.4166 20.165C12.2854 19.8788 12.1717 19.5878 12.0654 19.292C12.0522 19.2538 12.0351 19.2156 12.0218 19.1775C11.9195 18.8769 11.8357 18.5668 11.7627 18.2566C11.7539 18.2185 11.7417 18.1803 11.7334 18.1421C11.6658 17.8368 11.6168 17.5267 11.5781 17.2118C11.5727 17.1689 11.5619 17.1259 11.557 17.0782C11.5183 16.72 11.4987 16.3601 11.4983 16C11.4985 15.6398 11.5184 15.2798 11.558 14.9217C11.5629 14.8788 11.5732 14.8358 11.5786 14.7881C11.6173 14.478 11.6663 14.1631 11.7343 13.8578C11.7427 13.8196 11.7554 13.7815 11.7642 13.7433C11.8372 13.4332 11.921 13.1278 12.0233 12.8225C12.0365 12.7843 12.0527 12.7509 12.0659 12.7128C12.1703 12.4122 12.2858 12.1212 12.4176 11.8349C12.4387 11.792 12.4632 11.7442 12.4847 11.7013C12.6155 11.4294 12.7561 11.1622 12.9118 10.8998C12.9432 10.8473 12.9774 10.7948 13.0098 10.7423C13.1636 10.4942 13.3278 10.2509 13.5025 10.0124C13.5436 9.95987 13.5858 9.90264 13.6284 9.85016C13.8072 9.62115 13.9948 9.3969 14.1936 9.18221C14.2387 9.13449 14.2852 9.08204 14.3317 9.03433C14.5428 8.81487 14.7637 8.60491 14.9954 8.39976C16.9145 6.70741 19.4108 5.77024 21.9995 5.77024C24.5882 5.77024 27.0845 6.70741 29.0036 8.39976C29.2352 8.60491 29.4566 8.81487 29.6672 9.03433C29.7162 9.08204 29.7598 9.12972 29.8059 9.18221C30.0047 9.3969 30.1923 9.62115 30.3706 9.85016C30.4127 9.90264 30.4553 9.9551 30.497 10.0124C30.6723 10.2461 30.8365 10.4895 30.9897 10.7423C31.0225 10.7948 31.0558 10.8426 31.0876 10.8998C31.2424 11.1574 31.3815 11.4246 31.5147 11.7013C31.5363 11.7442 31.5608 11.7872 31.5818 11.8349C31.7131 12.1212 31.8268 12.4122 31.933 12.708C31.9463 12.7461 31.9634 12.7843 31.9756 12.8225C32.078 13.123 32.1623 13.4332 32.2347 13.7433C32.2441 13.7815 32.2563 13.8196 32.2651 13.8578C32.3327 14.1631 32.3817 14.4732 32.4204 14.7881C32.4258 14.8311 32.4365 14.874 32.4414 14.9217C32.4802 15.2799 32.4998 15.6398 32.5002 16C32.5 16.3602 32.48 16.7201 32.4405 17.0782C32.4356 17.1212 32.4253 17.1641 32.4194 17.2118C32.3812 17.5219 32.3322 17.8368 32.2641 18.1421C32.2558 18.1803 32.2431 18.2185 32.2347 18.2566C32.1623 18.5668 32.078 18.8721 31.9756 19.1775C31.9624 19.2156 31.9463 19.249 31.9325 19.292C31.8282 19.5878 31.7126 19.8788 31.5809 20.165C31.5598 20.208 31.5353 20.2557 31.5138 20.2986C31.383 20.5706 31.2424 20.8425 31.0876 21.1001C31.0558 21.1526 31.0215 21.2051 30.9897 21.2576C30.8354 21.5057 30.6718 21.749 30.496 21.9876C30.4553 22.0401 30.4127 22.0973 30.3706 22.1498C30.1923 22.3788 30.0037 22.603 29.8049 22.8177C29.7598 22.8654 29.7133 22.9179 29.6663 22.9656C29.4561 23.1851 29.2343 23.395 29.0036 23.6002H29.0031ZM12.9407 23.5H2.39932V8.49999H12.9407C12.9366 8.50452 12.9329 8.50932 12.9294 8.51431C12.7521 8.71469 12.5866 8.92936 12.4254 9.14406C12.3721 9.21562 12.3162 9.28239 12.2643 9.35395C12.1174 9.55911 11.9817 9.76906 11.8485 9.98376C11.7926 10.0696 11.7353 10.1602 11.6819 10.2461C11.56 10.4561 11.4473 10.666 11.3391 10.8807C11.2867 10.9857 11.2343 11.0906 11.1848 11.1956C11.0868 11.4008 10.9957 11.6154 10.9095 11.8301C10.8605 11.9494 10.8165 12.0735 10.7724 12.1927C10.6989 12.4027 10.6294 12.6078 10.5672 12.8177C10.5236 12.9656 10.4868 13.1135 10.4486 13.2614C10.3996 13.4523 10.3507 13.6431 10.3144 13.8387C10.2782 14.0343 10.2493 14.2347 10.2214 14.4303C10.1998 14.5877 10.1724 14.7404 10.1562 14.8978C10.1214 15.2652 10.1004 15.6326 10.1004 16C10.1004 16.3673 10.1214 16.7347 10.1577 17.1021C10.1729 17.2595 10.2003 17.4122 10.2228 17.5696C10.2507 17.7653 10.2772 17.9656 10.3159 18.1612C10.3546 18.3569 10.4021 18.5477 10.4501 18.7385C10.4883 18.8864 10.5245 19.0343 10.5686 19.1822C10.6303 19.3922 10.7004 19.6021 10.7739 19.8072C10.8179 19.9265 10.8625 20.0505 10.911 20.1698C10.9962 20.3845 11.0873 20.5992 11.1858 20.8043C11.2347 20.9093 11.2881 21.0143 11.3405 21.1192C11.4498 21.3339 11.5624 21.5439 11.6834 21.7538C11.7368 21.8445 11.7941 21.9303 11.8499 22.021C11.9836 22.2309 12.1188 22.4408 12.2658 22.646C12.3147 22.7176 12.3735 22.7843 12.4269 22.8559C12.589 23.0706 12.7536 23.2852 12.9309 23.4856C12.9337 23.4907 12.9369 23.4955 12.9407 23.5ZM2.39932 29.6354V24.8645H14.3469C16.4865 26.6264 19.1977 27.5932 21.9995 27.5932C24.8013 27.5932 27.5125 26.6264 29.6521 24.8645H41.5996V29.6354H2.39932ZM26.1995 15.3177H25.4996V12.5887C25.4992 12.473 25.4685 12.3593 25.4105 12.2582C25.3525 12.1572 25.269 12.0723 25.168 12.0114C25.0671 11.9489 24.9513 11.9129 24.8318 11.9071C24.7124 11.9012 24.5935 11.9256 24.4867 11.978L21.9995 13.1898L19.5123 11.9828C19.4059 11.9305 19.2876 11.9057 19.1686 11.9106C19.0496 11.9154 18.9338 11.9498 18.8323 12.0106C18.7308 12.0713 18.647 12.1562 18.5887 12.2574C18.5304 12.3586 18.4997 12.4727 18.4994 12.5887V15.3177H17.7995C17.6141 15.3182 17.4365 15.3904 17.3057 15.5183C17.1748 15.6462 17.1014 15.8194 17.1015 16V22.8177C17.1015 22.9073 17.1195 22.996 17.1547 23.0788C17.1898 23.1615 17.2414 23.2368 17.3064 23.3001C17.3714 23.3635 17.4485 23.4137 17.5335 23.448C17.6184 23.4823 17.7095 23.5 17.8014 23.5H26.2014C26.2934 23.5 26.3845 23.4823 26.4694 23.448C26.5544 23.4137 26.6315 23.3635 26.6965 23.3001C26.7615 23.2368 26.8131 23.1615 26.8482 23.0788C26.8834 22.996 26.9014 22.9073 26.9014 22.8177V16C26.9014 15.9102 26.8833 15.8214 26.848 15.7385C26.8128 15.6556 26.761 15.5803 26.6958 15.5169C26.6306 15.4535 26.5532 15.4033 26.468 15.3691C26.3829 15.3349 26.2916 15.3174 26.1995 15.3177ZM22.6994 16.6822H25.4996V18.729H22.6994V16.6822ZM24.0997 15.3177H22.6994V14.3778L24.0997 13.6956V15.3177ZM19.8992 13.6956L21.2996 14.3778V15.3177H19.8992V13.6956ZM19.1993 16.6822H21.2996V18.729H18.4994V16.6822H19.1993ZM18.4994 20.0935H21.2996V22.1355H18.4994V20.0935ZM22.6994 22.1355V20.0935H25.4996V22.1355H22.6994ZM38.0996 22.1355C38.5147 22.1353 38.9205 22.0151 39.2656 21.7903C39.6106 21.5654 39.8795 21.246 40.0381 20.8722C40.1967 20.4985 40.238 20.0874 40.1567 19.6908C40.0754 19.2942 39.8752 18.9301 39.5814 18.6443C39.2876 18.3586 38.9134 18.1642 38.5062 18.0856C38.0989 18.0071 37.6769 18.048 37.2935 18.2031C36.9101 18.3582 36.5825 18.6207 36.3523 18.9571C36.122 19.2936 35.9993 19.6891 35.9998 20.0935C36.001 20.6353 36.2227 21.1545 36.6163 21.5373C37.0099 21.9201 37.5434 22.1352 38.0996 22.1355ZM38.0996 19.4112C38.2374 19.4116 38.3721 19.4517 38.4865 19.5266C38.601 19.6014 38.6902 19.7076 38.7428 19.8317C38.7954 19.9558 38.809 20.0923 38.7821 20.224C38.7551 20.3557 38.6887 20.4767 38.5913 20.5717C38.4939 20.6667 38.3697 20.7314 38.2345 20.7577C38.0994 20.7841 37.9592 20.7709 37.8317 20.7197C37.7043 20.6686 37.5952 20.5818 37.5183 20.4703C37.4414 20.3589 37.4001 20.2277 37.3996 20.0935C37.3998 19.9126 37.4735 19.7393 37.6048 19.6114C37.736 19.4834 37.9139 19.4115 38.0996 19.4112ZM38.0996 13.9532C38.5145 13.953 38.9201 13.833 39.2651 13.6084C39.61 13.3837 39.8789 13.0645 40.0376 12.6911C40.1964 12.3176 40.238 11.9067 40.1571 11.5103C40.0762 11.1138 39.8765 10.7497 39.5832 10.4638C39.2898 10.1779 38.9161 9.98304 38.5092 9.90397C38.1022 9.82489 37.6804 9.86512 37.2969 10.0195C36.9134 10.1739 36.5855 10.4355 36.3546 10.7714C36.1238 11.1073 36.0003 11.5023 35.9998 11.9065C35.9999 12.449 36.2212 12.9693 36.6149 13.3531C37.0086 13.7369 37.5426 13.9527 38.0996 13.9532ZM38.0996 11.229C38.2376 11.2294 38.3725 11.2696 38.487 11.3446C38.6016 11.4197 38.6908 11.5261 38.7432 11.6505C38.7957 11.7749 38.8091 11.9117 38.7817 12.0435C38.7544 12.1753 38.6875 12.2963 38.5896 12.3911C38.4916 12.4859 38.367 12.5503 38.2315 12.5761C38.096 12.6019 37.9557 12.588 37.8284 12.5361C37.701 12.4842 37.5923 12.3967 37.5159 12.2846C37.4396 12.1726 37.3992 12.041 37.3996 11.9065C37.4008 11.7264 37.4751 11.5541 37.6062 11.4272C37.7373 11.3002 37.9147 11.229 38.0996 11.229ZM21.2996 8.49999H22.6994V10.5467H21.2996V8.49999ZM25.7043 10.7423L27.1041 9.38261L28.094 10.3464L26.6942 11.7109L25.7043 10.7423ZM15.9045 10.3464L16.8943 9.38261L18.2942 10.7423L17.3043 11.7109L15.9045 10.3464ZM5.8994 18.0467C5.48445 18.0469 5.07887 18.1669 4.73391 18.3916C4.38895 18.6162 4.12009 18.9354 3.96132 19.3089C3.80255 19.6823 3.76098 20.0932 3.84187 20.4897C3.92277 20.8861 4.12249 21.2503 4.4158 21.5362C4.70912 21.8221 5.08285 22.0169 5.48979 22.096C5.89672 22.175 6.31859 22.1348 6.70208 21.9804C7.08556 21.826 7.41346 21.5644 7.64433 21.2286C7.8752 20.8927 7.99867 20.4977 7.99916 20.0935C7.99903 19.5509 7.77781 19.0306 7.3841 18.6468C6.99039 18.2631 6.45638 18.0473 5.8994 18.0467ZM5.8994 20.771C5.76134 20.7706 5.62649 20.7303 5.51192 20.6553C5.39735 20.5803 5.30819 20.4738 5.25574 20.3494C5.20329 20.225 5.18989 20.0882 5.21724 19.9564C5.24459 19.8246 5.31146 19.7036 5.40939 19.6088C5.50733 19.5141 5.63192 19.4497 5.76742 19.4239C5.90292 19.3981 6.04323 19.412 6.17061 19.4638C6.29799 19.5157 6.40671 19.6032 6.48302 19.7153C6.55933 19.8274 6.5998 19.959 6.59932 20.0935C6.59815 20.2735 6.5239 20.4458 6.39276 20.5728C6.26163 20.6997 6.08427 20.771 5.8994 20.771ZM5.8994 9.86448C5.48424 9.86467 5.07846 9.98481 4.7334 10.2097C4.38833 10.4345 4.11948 10.754 3.96085 11.1277C3.80222 11.5014 3.76094 11.9126 3.84223 12.3091C3.92352 12.7057 4.12374 13.0699 4.41754 13.3556C4.71134 13.6413 5.08554 13.8358 5.49279 13.9143C5.90005 13.9928 6.32207 13.952 6.70547 13.7968C7.08887 13.6417 7.41643 13.3793 7.64671 13.0428C7.87699 12.7063 7.99964 12.3109 7.99916 11.9065C7.99799 11.3647 7.77628 10.8455 7.38266 10.4627C6.98903 10.0799 6.45562 9.86473 5.8994 9.86448ZM5.8994 12.5887C5.76155 12.5883 5.62689 12.5482 5.51243 12.4734C5.39796 12.3986 5.3088 12.2924 5.25621 12.1683C5.20361 12.0441 5.18992 11.9076 5.21688 11.7759C5.24383 11.6442 5.31022 11.5233 5.40766 11.4283C5.50511 11.3333 5.62924 11.2685 5.76442 11.2422C5.89959 11.2159 6.03975 11.2291 6.16722 11.2802C6.29468 11.3314 6.40374 11.4182 6.48064 11.5296C6.55754 11.6411 6.59883 11.7722 6.59932 11.9065C6.59919 12.0873 6.52542 12.2607 6.3942 12.3886C6.26299 12.5165 6.08503 12.5884 5.8994 12.5887Z" fill="#0F3653"/>
</g>
<rect x="1" y="1" width="42" height="30" stroke="#0F3653" stroke-width="2"/>
<defs>
<clipPath id="clip0">
<rect x="1" y="1" width="42" height="30" fill="white"/>
</clipPath>
</defs>
</svg>
