<svg xmlns="http://www.w3.org/2000/svg" width="59.38" height="56.189" viewBox="0 0 59.38 56.189">
  <g id="Group_455" data-name="Group 455" transform="translate(-109.31 -2809.706)">
    <g id="noun-urgent-3918077" transform="translate(25.308 2781.707)">
      <path id="Path_1272" data-name="Path 1272" d="M334.581,37.135a1.949,1.949,0,0,0,1.94-1.94V30a1.94,1.94,0,1,0-3.879-.063v5.193A1.964,1.964,0,0,0,334.581,37.135Z" transform="translate(-220.857)" fill="#ff7400"/>
      <path id="Path_1273" data-name="Path 1273" d="M160.371,107.873a1.964,1.964,0,0,0,2.753,0,2.041,2.041,0,0,0,0-2.816l-3.692-3.692a2.041,2.041,0,0,0-2.816,0,1.982,1.982,0,0,0,0,2.816Z" transform="translate(-63.98 -64.669)" fill="#ff7400"/>
      <path id="Path_1274" data-name="Path 1274" d="M91.2,276.64H85.942a1.94,1.94,0,1,0,0,3.879H91.2a1.94,1.94,0,0,0,0-3.879Z" transform="translate(0 -220.859)" fill="#ff7400"/>
      <path id="Path_1275" data-name="Path 1275" d="M541.438,276.64h-5.256a1.94,1.94,0,0,0,0,3.879h5.193a1.949,1.949,0,0,0,1.94-1.94,1.9,1.9,0,0,0-1.877-1.94Z" transform="translate(-399.932 -220.859)" fill="#ff7400"/>
      <path id="Path_1276" data-name="Path 1276" d="M476.942,108.437a1.941,1.941,0,0,0,1.377-.563l3.692-3.692a1.991,1.991,0,1,0-2.816-2.816l-3.692,3.692a1.983,1.983,0,0,0,.062,2.815,1.94,1.94,0,0,0,1.377.563Z" transform="translate(-347.262 -64.67)" fill="#ff7400"/>
      <path id="Path_1277" data-name="Path 1277" d="M204.127,179.176h-2.69V166.161a16.081,16.081,0,0,0-32.162,0v13.015h-2.69a1.949,1.949,0,0,0-1.94,1.94v9.573a1.949,1.949,0,0,0,1.94,1.94h37.543a1.949,1.949,0,0,0,1.94-1.94v-9.511a2,2,0,0,0-1.94-2Zm-30.91-13.015a12.139,12.139,0,0,1,24.278,0v13.015H173.217Zm28.971,22.651H168.524v-5.694h33.6v5.694Z" transform="translate(-71.632 -108.44)" fill="#ff7400"/>
    </g>
    <path id="Path_1278" data-name="Path 1278" d="M10848.267,2841.05v-18s7.984-11.094,15.084-11.094,13.314,11.094,13.314,11.094v18Z" transform="translate(-10724 13)" fill="#ff7400" stroke="#ff7400" stroke-width="1"/>
  </g>
</svg>
