<svg width="432" height="89" viewBox="0 0 432 89" fill="none" xmlns="http://www.w3.org/2000/svg">
<path d="M57.1199 31.956C57.8719 32.708 58.2479 33.4287 58.2479 34.118C58.2479 34.682 57.9972 35.0893 57.4959 35.34C57.0572 35.5907 56.4305 35.6533 55.6159 35.528L49.6939 35.998C49.5685 35.998 49.1925 36.0293 48.5659 36.092C47.9392 36.092 46.8425 36.092 45.2759 36.092C44.6492 37.3453 43.8659 39.0687 42.9259 41.262C41.9859 43.4553 41.5159 44.6773 41.5159 44.928C41.5159 45.6173 41.3592 46.1187 41.0459 46.432C40.8579 46.432 40.7325 46.5887 40.6699 46.902C40.6072 47.1527 40.5759 47.3407 40.5759 47.466C40.5759 47.654 40.4192 48.312 40.1059 49.44C41.9859 49.3773 44.0225 49.346 46.2159 49.346C47.8452 49.346 48.9419 49.44 49.5059 49.628C50.0699 49.7533 50.6965 50.1293 51.3859 50.756C52.1379 51.508 52.5139 52.2287 52.5139 52.918C52.5139 53.482 52.2632 53.8893 51.7619 54.14C51.3232 54.3907 50.6965 54.4533 49.8819 54.328L43.9599 54.798C43.8345 54.798 43.3645 54.8293 42.5499 54.892C41.7352 54.892 40.3252 54.892 38.3199 54.892C36.1892 61.9107 34.4659 67.7073 33.1499 72.282C31.8965 76.8567 31.2699 79.802 31.2699 81.118C31.2699 82.7473 31.2072 83.75 31.0819 84.126C31.0192 84.5647 30.7685 84.9093 30.3299 85.16C30.1419 85.2227 29.8285 85.254 29.3899 85.254C28.3872 85.254 27.6039 84.7527 27.0399 83.75C26.4759 82.7473 26.1939 81.3687 26.1939 79.614C26.1939 78.1727 26.3819 76.512 26.7579 74.632C27.4472 72.8147 27.7919 71.4987 27.7919 70.684C27.9172 69.932 28.4812 67.958 29.4839 64.762C30.4865 61.5033 31.5519 58.2447 32.6799 54.986L17.5459 55.174L16.6999 57.9C16.3865 59.028 15.6345 61.5973 14.4439 65.608C13.2532 69.6187 12.3132 72.9713 11.6239 75.666C10.9345 78.4233 10.5899 80.2407 10.5899 81.118C10.5899 82.7473 10.5272 83.75 10.4019 84.126C10.3392 84.5647 10.0885 84.9093 9.64987 85.16C9.46187 85.2227 9.14854 85.254 8.70987 85.254C7.7072 85.254 6.92387 84.7527 6.35987 83.75C5.79587 82.7473 5.51387 81.3687 5.51387 79.614C5.51387 78.1727 5.70187 76.512 6.07787 74.632C6.7672 72.8147 7.11187 71.4987 7.11187 70.684C7.36254 69.4307 8.96054 64.292 11.9059 55.268H7.48787C6.23454 55.268 5.13787 55.1113 4.19787 54.798C3.32054 54.798 2.69387 54.704 2.31787 54.516C2.00454 54.328 1.72254 53.9833 1.47187 53.482C1.09587 52.918 0.907871 52.4793 0.907871 52.166C0.907871 51.79 1.25254 51.508 1.94187 51.32C2.6312 51.0693 3.8532 50.85 5.60787 50.662C6.4852 50.4113 9.14854 50.192 13.5979 50.004C14.0365 48.7507 14.3499 47.8733 14.5379 47.372C14.7259 46.8707 14.8512 46.5573 14.9139 46.432C15.1645 46.432 15.3839 46.244 15.5719 45.868C15.7599 45.4293 15.8539 44.9593 15.8539 44.458C15.8539 43.894 15.9479 43.33 16.1359 42.766C16.3865 42.1393 16.6372 41.7007 16.8879 41.45C16.8879 41.262 16.9505 40.9173 17.0759 40.416C17.2639 39.9147 17.3579 39.57 17.3579 39.382C17.3579 39.2567 17.4205 39.0373 17.5459 38.724C17.7339 38.348 17.8279 38.066 17.8279 37.878C17.9532 37.69 18.0472 37.4707 18.1099 37.22C18.2352 36.9693 18.3605 36.7187 18.4859 36.468H13.2219C11.9685 36.468 10.8719 36.3113 9.93187 35.998C9.05454 35.998 8.42787 35.904 8.05187 35.716C7.73854 35.528 7.45654 35.1833 7.20587 34.682C6.82987 34.118 6.64187 33.6793 6.64187 33.366C6.64187 32.99 6.98654 32.708 7.67587 32.52C8.3652 32.2693 9.5872 32.05 11.3419 31.862C12.2819 31.6113 15.4152 31.392 20.7419 31.204C22.9352 25.752 25.2852 19.7047 27.7919 13.062C30.2985 6.35666 31.5519 2.722 31.5519 2.158C31.5519 1.15533 32.0532 0.653994 33.0559 0.653994C33.3692 0.340661 33.8705 0.183995 34.5599 0.183995L36.0639 1.688C36.5025 2.12666 36.7845 2.59666 36.9099 3.098C37.0352 3.53666 37.0979 4.226 37.0979 5.166C37.0979 6.106 36.9725 6.92066 36.7219 7.60999C36.4712 8.29933 35.8445 9.70933 34.8419 11.84C34.6539 12.2787 34.4032 12.8113 34.0899 13.438C33.7765 14.002 33.4319 14.7227 33.0559 15.6C32.8679 16.2267 32.1472 17.8873 30.8939 20.582C30.0792 22.5247 29.2645 24.4047 28.4499 26.222C27.6979 28.0393 27.0399 29.6373 26.4759 31.016C28.9825 30.8907 33.3065 30.7653 39.4479 30.64H41.6099C43.8032 25.1253 46.1219 19.1407 48.5659 12.686C51.0099 6.23133 52.2319 2.722 52.2319 2.158C52.2319 1.15533 52.7332 0.653994 53.7359 0.653994C54.0492 0.340661 54.5505 0.183995 55.2399 0.183995L56.7439 1.688C57.1825 2.12666 57.4645 2.59666 57.5899 3.098C57.7152 3.53666 57.7779 4.226 57.7779 5.166C57.7779 6.106 57.6525 6.92066 57.4019 7.60999C57.1512 8.29933 56.5245 9.70933 55.5219 11.84C55.3339 12.2787 55.0832 12.8113 54.7699 13.438C54.4565 14.002 54.1119 14.7227 53.7359 15.6L52.7019 17.95C50.0699 24.0913 48.2839 28.29 47.3439 30.546H51.9499C53.5792 30.546 54.6759 30.64 55.2399 30.828C55.8039 30.9533 56.4305 31.3293 57.1199 31.956ZM38.5079 37.878C38.8212 37.2513 39.0719 36.6873 39.2599 36.186L24.4079 36.374C23.6559 37.9407 22.8725 39.7267 22.0579 41.732C21.2432 43.6747 20.8359 44.74 20.8359 44.928C20.8359 45.6173 20.6792 46.1187 20.3659 46.432C20.1779 46.432 20.0525 46.5887 19.9899 46.902C19.9272 47.1527 19.8959 47.3407 19.8959 47.466C19.8959 47.7793 19.7079 48.5627 19.3319 49.816C22.1519 49.6907 27.1965 49.5653 34.4659 49.44L35.5939 46.432C35.8445 46.432 36.0639 46.244 36.2519 45.868C36.4399 45.4293 36.5339 44.9593 36.5339 44.458C36.5339 43.894 36.6279 43.33 36.8159 42.766C37.0665 42.1393 37.3172 41.7007 37.5679 41.45C37.5679 41.262 37.6305 40.9173 37.7559 40.416C37.9439 39.9147 38.0379 39.57 38.0379 39.382C38.0379 39.2567 38.1005 39.0373 38.2259 38.724C38.4139 38.348 38.5079 38.066 38.5079 37.878ZM59.6197 74.914C58.805 73.786 55.9537 73.316 51.0657 73.504L50.2197 73.598C49.029 73.598 47.995 73.316 47.1177 72.752C46.2404 72.188 45.8957 71.5613 46.0837 70.872C46.209 69.2427 48.8097 68.3967 53.8857 68.334L58.8677 68.24L59.8077 66.36C60.309 64.9187 61.0297 62.6 61.9697 59.404C62.283 58.2133 62.941 56.208 63.9437 53.388C65.8864 47.372 66.9204 44.1133 67.0457 43.612C67.359 42.86 67.8604 41.356 68.5497 39.1C69.239 36.844 69.7717 34.9953 70.1477 33.554C73.093 24.4673 74.2837 19.8613 73.7197 19.736C73.093 19.6733 71.3697 19.7987 68.5497 20.112C65.7924 20.3627 64.257 20.582 63.9437 20.77C63.7557 21.0207 63.4424 21.146 63.0037 21.146C62.6277 21.146 62.2204 21.0207 61.7817 20.77C61.343 20.4567 61.061 20.112 60.9357 19.736C60.873 19.4853 60.8417 19.1407 60.8417 18.702C60.8417 18.2633 61.0297 17.9187 61.4057 17.668C62.095 17.104 63.599 16.4773 65.9177 15.788C68.299 15.036 70.5864 14.5347 72.7797 14.284C73.845 14.1587 74.9104 13.9393 75.9757 13.626C77.1037 13.25 77.9497 12.8113 78.5137 12.31C79.8297 11.8713 80.9264 11.6833 81.8037 11.746C82.2424 12.0593 83.3077 12.216 84.9997 12.216C86.441 12.216 87.5377 12.1847 88.2897 12.122C90.5457 11.8713 92.457 11.746 94.0237 11.746C95.2144 11.746 96.0604 11.8713 96.5617 12.122C97.1257 12.3727 97.5644 12.78 97.8777 13.344C98.1284 14.3467 98.2537 15.0047 98.2537 15.318C98.2537 16.5087 97.5644 17.0727 96.1857 17.01C95.1204 17.2607 92.551 17.4487 88.4777 17.574C84.0284 17.95 81.647 18.3887 81.3337 18.89C81.0204 19.2033 80.7697 19.4853 80.5817 19.736C80.4564 19.9867 80.2997 20.2373 80.1117 20.488C80.1744 20.7387 80.0177 21.5533 79.6417 22.932C79.3284 24.248 78.921 25.5953 78.4197 26.974L76.7277 31.956C74.973 37.408 73.845 40.7607 73.3437 42.014C72.905 43.0793 72.5917 44.176 72.4037 45.304C71.3384 49.0013 70.461 51.9467 69.7717 54.14C69.0824 56.2707 68.5497 57.994 68.1737 59.31C66.983 62.8193 66.0744 65.7647 65.4477 68.146L70.8057 67.676C74.503 67.3 76.9157 67.112 78.0437 67.112C78.921 67.112 79.5164 67.206 79.8297 67.394C80.2057 67.582 80.4877 67.958 80.6757 68.522C81.4277 69.462 81.8037 70.2453 81.8037 70.872C81.8037 71.624 81.2084 72.1567 80.0177 72.47C78.827 72.7833 76.9784 72.9087 74.4717 72.846C71.589 72.9713 69.1764 73.0653 67.2337 73.128C65.3537 73.2533 64.069 73.41 63.3797 73.598C62.753 73.786 62.377 74.0993 62.2517 74.538C62.2517 75.0393 61.9697 75.29 61.4057 75.29C60.779 75.29 60.1837 75.1647 59.6197 74.914ZM126.302 68.052C125.425 67.7387 124.579 66.9867 123.764 65.796C123.012 64.5427 122.636 62.5373 122.636 59.78L122.73 55.456C122.73 54.704 122.668 54.1713 122.542 53.858C122.48 53.5447 122.323 53.388 122.072 53.388C121.258 53.388 119.503 54.4533 116.808 56.584C114.176 58.7147 111.513 61.2527 108.818 64.198C108.505 64.5113 108.066 64.9813 107.502 65.608C107.001 66.172 106.531 66.6107 106.092 66.924C105.654 67.1747 105.246 67.3 104.87 67.3C104.306 67.3 103.774 67.0807 103.272 66.642L102.238 65.796C101.8 65.42 101.58 64.9813 101.58 64.48L101.768 63.634L103.93 57.43C105.309 54.234 106.124 52.2287 106.374 51.414C106.625 50.5367 106.594 50.1293 106.28 50.192C105.716 50.2547 104.933 50.568 103.93 51.132C102.928 51.6333 102.301 52.1347 102.05 52.636C101.925 52.636 101.518 52.9807 100.828 53.67C100.139 54.2967 99.5437 54.7667 99.0424 55.08C98.4784 55.8947 97.0997 57.3673 94.9064 59.498L92.6504 61.66C91.7104 62.412 90.3944 63.9473 88.7024 66.266C87.8251 67.394 87.3237 67.958 87.1984 67.958C85.2557 67.958 84.0337 67.018 83.5324 65.138C83.2817 64.6993 83.1564 64.104 83.1564 63.352C83.1564 62.3493 83.5324 60.2813 84.2844 57.148C84.8484 55.0173 85.1617 53.7013 85.2244 53.2L85.6944 51.32C85.8197 50.5053 86.1017 49.534 86.5404 48.406C86.9791 47.278 87.7311 45.492 88.7964 43.048C89.4231 41.2933 89.7364 39.9773 89.7364 39.1C89.7364 38.2853 90.0184 37.6587 90.5824 37.22C91.1464 36.7187 91.7731 36.468 92.4624 36.468C93.3397 36.468 94.0917 36.8127 94.7184 37.502C95.3451 38.1913 95.6584 39.1 95.6584 40.228C95.6584 41.2933 95.4077 42.39 94.9064 43.518L93.8724 46.056C93.3711 47.0587 92.7131 48.688 91.8984 50.944C91.1464 53.1373 90.7704 54.3593 90.7704 54.61C90.8331 54.798 91.0524 54.7667 91.4284 54.516C91.8044 54.2027 92.2431 53.8267 92.7444 53.388C93.3084 52.824 93.9664 52.26 94.7184 51.696C96.5984 49.9413 98.8231 48.2493 101.392 46.62C104.024 44.9907 106.03 43.9567 107.408 43.518C108.223 43.518 108.818 43.6433 109.194 43.894C109.633 44.082 110.103 44.458 110.604 45.022C111.106 45.5233 111.482 45.8993 111.732 46.15C112.296 46.714 112.578 47.5287 112.578 48.594C112.578 48.9073 112.516 49.3147 112.39 49.816C112.14 50.6933 111.795 51.7587 111.356 53.012C110.98 54.2653 110.698 55.174 110.51 55.738C110.949 55.362 111.732 54.704 112.86 53.764C113.988 52.824 115.022 51.9467 115.962 51.132C119.096 48.688 121.571 47.466 123.388 47.466C124.704 47.466 125.832 48.1553 126.772 49.534C127.336 50.098 127.681 50.6933 127.806 51.32C127.932 51.884 127.994 52.6673 127.994 53.67C127.994 54.6727 127.994 55.456 127.994 56.02C128.057 56.4587 128.088 57.2107 128.088 58.276C128.151 58.7773 128.214 59.7487 128.276 61.19C128.402 62.6313 128.558 63.446 128.746 63.634C129.06 64.01 130.125 64.3547 131.942 64.668C133.07 64.856 133.634 65.3573 133.634 66.172C133.634 66.736 133.227 67.3 132.412 67.864C131.598 68.3653 130.595 68.616 129.404 68.616C128.276 68.616 127.242 68.428 126.302 68.052ZM132.184 88.45C131.808 88.638 131.463 88.732 131.15 88.732C130.273 88.732 129.521 88.262 128.894 87.322C128.267 86.4447 127.954 85.3793 127.954 84.126C127.954 83.562 128.048 82.9353 128.236 82.246C128.299 81.9953 128.455 81.4 128.706 80.46C129.019 79.5827 129.207 78.8307 129.27 78.204C129.395 77.5147 129.771 76.2613 130.398 74.444C131.025 72.6267 131.526 71.4047 131.902 70.778C132.215 70.214 132.466 69.556 132.654 68.804C132.842 67.9893 132.936 67.3 132.936 66.736C133.375 65.3573 133.782 64.4173 134.158 63.916C134.597 62.5373 135.067 61.472 135.568 60.72C135.631 60.532 135.693 60.0933 135.756 59.404C135.881 58.652 136.101 58.2133 136.414 58.088C136.602 57.2107 136.759 56.6153 136.884 56.302C137.323 54.3593 138.137 51.9153 139.328 48.97C139.955 47.3407 140.268 45.7113 140.268 44.082C140.268 42.1393 139.798 41.0113 138.858 40.698C138.169 40.4473 137.824 39.946 137.824 39.194C137.824 38.7553 137.949 38.348 138.2 37.972C138.451 37.596 138.795 37.314 139.234 37.126C139.735 36.938 140.237 36.844 140.738 36.844C141.427 36.844 142.054 36.938 142.618 37.126C143.245 37.314 143.527 37.4707 143.464 37.596C143.464 37.784 143.495 37.9407 143.558 38.066C143.621 38.1287 143.746 38.16 143.934 38.16C144.122 37.9093 144.592 38.442 145.344 39.758C146.096 41.0113 146.472 41.8887 146.472 42.39C146.347 42.578 146.284 42.7033 146.284 42.766C146.347 42.8287 146.472 42.86 146.66 42.86C147.099 42.672 147.913 42.2647 149.104 41.638C150.357 40.9487 151.141 40.416 151.454 40.04C151.579 39.9773 151.799 39.8833 152.112 39.758C152.425 39.57 152.676 39.382 152.864 39.194C153.553 38.9433 154.337 38.818 155.214 38.818C156.217 38.818 157.188 38.9747 158.128 39.288C159.068 39.6013 159.851 40.04 160.478 40.604C161.794 42.296 162.452 43.894 162.452 45.398C162.452 46.714 162.013 48.4373 161.136 50.568C161.011 50.944 160.603 51.696 159.914 52.824C159.287 53.8893 158.849 54.61 158.598 54.986C157.282 57.054 155.715 58.84 153.898 60.344C152.081 61.848 149.981 63.258 147.6 64.574C146.911 65.0127 146.19 65.3573 145.438 65.608C144.749 65.8587 144.153 65.984 143.652 65.984C143.401 65.984 143.151 65.9213 142.9 65.796C142.211 65.2947 141.584 64.2293 141.02 62.6C140.205 64.5427 139.735 65.8587 139.61 66.548C139.61 66.736 139.547 67.0493 139.422 67.488C139.359 67.864 139.203 68.146 138.952 68.334C138.952 68.3967 138.889 68.5533 138.764 68.804C138.701 69.0547 138.513 69.3993 138.2 69.838C137.26 72.47 136.665 74.0993 136.414 74.726C135.349 77.734 134.722 79.708 134.534 80.648C134.409 82.2147 134.064 83.844 133.5 85.536C132.936 87.2907 132.497 88.262 132.184 88.45ZM143.37 61.66C143.934 61.3467 145.469 60.25 147.976 58.37C150.483 56.4273 152.049 55.08 152.676 54.328C153.867 52.8867 154.681 51.5393 155.12 50.286C155.747 48.7193 156.185 47.56 156.436 46.808C156.624 46.432 156.718 45.9933 156.718 45.492C156.718 44.8027 156.53 44.27 156.154 43.894C155.778 43.8313 154.932 44.0507 153.616 44.552C152.363 44.9907 150.984 45.68 149.48 46.62C148.039 47.4973 146.817 48.594 145.814 49.91C144.686 51.414 143.777 53.0433 143.088 54.798C142.461 56.5527 142.148 58.0567 142.148 59.31C142.148 60.8767 142.555 61.66 143.37 61.66ZM163.291 68.616C163.103 68.24 162.79 67.864 162.351 67.488C161.975 67.0493 161.787 66.7673 161.787 66.642C161.787 65.9527 161.631 65.42 161.317 65.044C161.192 64.9187 161.129 64.6367 161.129 64.198C161.129 63.1953 161.599 61.5033 162.539 59.122C163.542 56.678 164.827 54.046 166.393 51.226C166.769 50.85 167.239 50.192 167.803 49.252C168.43 48.312 168.837 47.7793 169.025 47.654C169.025 47.4033 169.119 47.184 169.307 46.996C169.495 46.7453 169.715 46.62 169.965 46.62V46.056C169.965 45.492 170.999 44.1447 173.067 42.014C175.135 39.8207 176.827 38.3167 178.143 37.502C179.71 36.4367 181.308 35.904 182.937 35.904C184.065 35.904 185.037 36.2173 185.851 36.844C186.165 37.22 187.606 38.5673 190.175 40.886L193.653 43.988L191.961 48.688C191.397 50.38 191.115 51.9153 191.115 53.294C191.115 55.6753 191.805 57.9627 193.183 60.156C193.497 60.8453 194.123 61.5033 195.063 62.13C196.003 62.7567 196.943 63.1327 197.883 63.258C199.262 63.5087 199.951 64.198 199.951 65.326C199.951 66.5793 199.387 67.3313 198.259 67.582C198.009 67.6447 197.633 67.676 197.131 67.676C193.434 67.676 190.238 65.0753 187.543 59.874C187.293 59.498 186.948 58.8087 186.509 57.806C186.133 56.8033 185.914 56.114 185.851 55.738C185.475 56.2393 185.005 56.8347 184.441 57.524C183.877 58.2133 183.345 58.8087 182.843 59.31C176.013 66.1407 170.623 69.556 166.675 69.556C165.422 69.556 164.294 69.2427 163.291 68.616ZM166.675 63.352C166.675 63.6653 166.989 63.7593 167.615 63.634C168.305 63.5087 169.119 63.1953 170.059 62.694C171.062 62.1927 172.065 61.5347 173.067 60.72C178.457 56.0827 182.342 52.0407 184.723 48.594L186.791 45.21C186.165 43.894 185.507 42.954 184.817 42.39C184.128 41.7633 183.501 41.45 182.937 41.45C181.621 41.45 179.553 43.1107 176.733 46.432C173.913 49.6907 171.344 53.5447 169.025 57.994C168.461 59.0593 167.96 60.156 167.521 61.284C167.083 62.3493 166.801 63.0387 166.675 63.352ZM212.503 69.556C211.751 69.8693 210.967 70.026 210.153 70.026C208.837 70.026 207.239 69.6813 205.359 68.992C205.045 68.992 204.544 68.71 203.855 68.146C203.165 67.582 202.664 66.9553 202.351 66.266C201.473 65.0127 201.035 63.3207 201.035 61.19C201.035 57.994 201.943 54.1713 203.761 49.722C204.45 48.2807 205.578 46.4007 207.145 44.082C208.774 41.7007 209.871 40.3533 210.435 40.04C210.623 39.9773 211.061 39.8207 211.751 39.57C212.44 39.2567 213.223 38.8807 214.101 38.442C214.978 38.0033 216.012 37.784 217.203 37.784C218.393 37.784 219.709 38.2227 221.151 39.1C222.655 39.9147 223.845 40.886 224.723 42.014C225.6 43.142 225.913 44.1133 225.663 44.928C225.6 45.116 225.224 45.5233 224.535 46.15C223.908 46.7767 223.407 47.278 223.031 47.654C222.717 47.9673 222.341 48.124 221.903 48.124C221.339 48.124 220.837 47.9047 220.399 47.466C219.96 46.9647 219.709 46.3067 219.647 45.492C219.521 45.116 219.114 44.7087 218.425 44.27C217.798 43.8313 217.359 43.5493 217.109 43.424C216.607 43.424 215.887 43.8627 214.947 44.74C214.069 45.6173 213.192 46.714 212.315 48.03C210.873 49.534 209.651 51.3827 208.649 53.576C207.646 55.7693 206.925 57.6493 206.487 59.216C206.361 59.4667 206.299 59.9053 206.299 60.532C206.299 61.2213 206.361 61.9107 206.487 62.6C206.675 63.2893 206.863 63.728 207.051 63.916C207.176 63.9787 207.489 64.01 207.991 64.01C209.432 64.01 211.469 63.7907 214.101 63.352C216.795 62.8507 218.863 62.318 220.305 61.754C221.746 60.814 223.125 60.344 224.441 60.344C224.879 60.344 225.193 60.3753 225.381 60.438C226.195 60.814 226.603 61.2527 226.603 61.754C226.603 62.6313 225.694 63.5713 223.877 64.574C222.811 65.138 221.903 65.702 221.151 66.266C220.399 66.83 220.023 67.2687 220.023 67.582C219.897 67.582 219.647 67.676 219.271 67.864C218.895 67.9893 218.644 68.0207 218.519 67.958C217.829 68.0207 216.764 68.24 215.323 68.616C213.881 68.992 212.941 69.3053 212.503 69.556ZM236.759 71.342C235.756 71.154 234.722 70.496 233.657 69.368C232.654 68.1773 231.996 67.0807 231.683 66.078C231.683 65.9527 231.62 65.8273 231.495 65.702C231.37 65.514 231.276 65.3887 231.213 65.326C230.962 65.138 230.837 64.104 230.837 62.224C230.837 60.72 230.9 59.1533 231.025 57.524C231.213 55.8947 231.432 54.5787 231.683 53.576L233.375 48.594L234.691 44.834L237.229 39.382L233.469 38.348C233.03 38.2853 232.654 38.066 232.341 37.69C232.09 37.314 231.965 36.9693 231.965 36.656C231.965 36.1547 232.216 35.5593 232.717 34.87C233.281 34.118 233.72 33.742 234.033 33.742C234.221 33.8047 234.722 33.836 235.537 33.836C237.417 33.836 238.827 33.742 239.767 33.554C240.394 33.3033 240.832 32.802 241.083 32.05C241.334 31.5487 241.616 30.922 241.929 30.17C242.305 29.418 242.65 28.7287 242.963 28.102C243.151 27.726 243.433 27.162 243.809 26.41C244.248 25.5953 244.78 24.6867 245.407 23.684C245.532 23.496 245.814 23.0573 246.253 22.368C246.692 21.616 247.224 20.9893 247.851 20.488C248.29 20.0493 248.822 19.83 249.449 19.83C250.076 19.83 250.89 20.2373 251.893 21.052C252.018 21.24 252.175 21.4907 252.363 21.804C252.614 22.1173 252.739 22.3993 252.739 22.65C252.739 22.9007 252.488 23.4333 251.987 24.248C251.611 25 251.235 25.6893 250.859 26.316C250.546 26.88 250.264 27.3813 250.013 27.82C249.261 29.0733 248.728 30.0133 248.415 30.64C247.788 31.4547 247.475 32.0813 247.475 32.52C247.475 32.9587 247.882 33.178 248.697 33.178C249.574 33.178 251.047 32.99 253.115 32.614C253.992 32.4887 254.588 32.426 254.901 32.426C257.094 32.426 258.285 33.3347 258.473 35.152C258.536 35.528 258.567 35.9667 258.567 36.468C258.567 37.3453 258.254 37.878 257.627 38.066C257.063 38.254 255.747 38.348 253.679 38.348C251.674 38.6613 249.606 38.818 247.475 38.818C247.099 38.818 246.66 38.8493 246.159 38.912C245.72 38.912 245.25 38.9747 244.749 39.1C244.248 39.2253 243.872 39.4133 243.621 39.664C243.433 39.9147 243.214 40.322 242.963 40.886C242.775 41.074 242.336 41.7947 241.647 43.048C240.77 44.8653 240.206 45.962 239.955 46.338C238.263 51.3513 237.01 56.49 236.195 61.754C236.07 62.7567 236.007 63.3833 236.007 63.634C236.007 64.574 236.32 65.232 236.947 65.608C237.574 65.984 238.639 66.172 240.143 66.172C242.274 66.172 244.122 65.9527 245.689 65.514C247.569 64.6993 248.979 64.01 249.919 63.446C250.483 63.1327 250.984 62.8507 251.423 62.6C251.924 62.2867 252.269 62.0673 252.457 61.942C252.645 61.566 252.864 61.378 253.115 61.378C253.616 61.378 254.055 61.8793 254.431 62.882C254.431 63.8847 254.212 64.762 253.773 65.514C253.334 66.266 252.238 67.1433 250.483 68.146C246.848 70.4647 243.214 71.624 239.579 71.624C238.576 71.624 237.636 71.53 236.759 71.342ZM263.272 71.248C261.142 71.248 259.293 70.8093 257.726 69.932C256.16 69.0547 255.126 67.864 254.624 66.36C254.186 65.232 253.966 64.6053 253.966 64.48C253.966 64.104 254.186 63.822 254.624 63.634C255.063 63.634 255.564 63.822 256.128 64.198C256.755 64.574 257.256 64.8247 257.632 64.95C258.572 65.8273 259.857 66.266 261.486 66.266C262.74 66.266 263.868 66.0153 264.87 65.514C265.936 65.0127 266.531 64.4173 266.656 63.728C266.656 63.4147 266.343 62.318 265.716 60.438C264.15 58.182 262.928 55.8947 262.05 53.576C261.236 51.1947 260.828 49.1893 260.828 47.56C260.828 46.3693 261.173 45.1473 261.862 43.894C262.552 42.6407 263.492 41.5753 264.682 40.698C266.249 39.0687 268.129 37.596 270.322 36.28C272.578 34.964 274.615 34.0553 276.432 33.554C277.184 33.554 278.093 33.648 279.158 33.836C280.286 34.024 281.07 34.2433 281.508 34.494C282.198 34.7447 282.856 35.434 283.482 36.562C284.109 37.69 284.422 38.7553 284.422 39.758C284.422 40.7607 283.89 42.1393 282.824 43.894C282.699 44.3327 282.448 44.928 282.072 45.68C281.696 46.432 281.508 46.902 281.508 47.09C281.258 47.7167 280.85 48.03 280.286 48.03C279.722 48.03 279.158 47.7793 278.594 47.278C278.093 46.714 277.686 46.056 277.372 45.304C277.184 44.552 277.09 43.894 277.09 43.33C277.09 42.578 277.341 41.826 277.842 41.074C278.532 40.3847 278.876 39.9147 278.876 39.664C278.876 39.4133 278.532 39.288 277.842 39.288C277.09 39.288 275.649 39.8833 273.518 41.074C271.388 42.2647 269.696 43.518 268.442 44.834C267.314 45.8993 266.625 46.714 266.374 47.278C266.124 47.7793 265.998 48.5627 265.998 49.628C265.998 50.568 266.186 51.696 266.562 53.012C267.001 54.2653 267.44 55.1113 267.878 55.55C268.004 55.8007 268.254 56.3333 268.63 57.148C269.069 57.9627 269.57 58.746 270.134 59.498C271.388 62.318 272.014 64.5113 272.014 66.078C272.014 67.8953 271.294 69.2113 269.852 70.026C268.474 70.8407 266.28 71.248 263.272 71.248ZM312.153 75.572C309.709 74.9453 307.484 73.7233 305.479 71.906C303.474 70.026 302.189 68.052 301.625 65.984C301.374 64.104 301.249 62.0047 301.249 59.686C301.249 58.182 301.343 57.336 301.531 57.148C301.719 57.0227 301.813 56.6467 301.813 56.02C301.75 55.644 301.97 54.61 302.471 52.918C302.91 51.79 303.035 50.8187 302.847 50.004C302.91 49.8787 303.004 49.6593 303.129 49.346C303.317 49.0327 303.536 48.7193 303.787 48.406C304.1 48.0927 304.257 47.7793 304.257 47.466C304.32 47.09 304.32 46.8393 304.257 46.714V46.62C304.257 46.3693 304.32 46.056 304.445 45.68C304.633 45.2413 304.821 44.8967 305.009 44.646C305.197 44.458 305.354 44.2073 305.479 43.894C305.667 43.5807 305.792 43.3613 305.855 43.236C305.918 42.7973 306.388 41.4187 307.265 39.1C308.205 36.7187 308.832 35.2773 309.145 34.776V34.588C309.396 33.9613 309.74 33.3033 310.179 32.614C310.304 31.7367 310.743 30.5147 311.495 28.948C312.936 25.752 314.942 22.086 317.511 17.95C320.143 13.7513 322.211 10.9313 323.715 9.49C324.342 8.80066 324.843 8.33066 325.219 8.08C325.658 7.76666 326.065 7.60999 326.441 7.60999C327.005 7.60999 327.726 8.04866 328.603 8.926C329.355 9.678 329.731 10.6807 329.731 11.934C329.731 12.6233 329.606 12.968 329.355 12.968C328.54 13.532 326.911 15.5687 324.467 19.078C322.023 22.5873 320.049 25.7207 318.545 28.478C317.73 30.2327 317.01 31.7053 316.383 32.896C315.819 34.0867 315.443 34.87 315.255 35.246L314.879 36.092C313.375 39.288 311.965 42.7347 310.649 46.432C310.336 46.808 310.116 47.2153 309.991 47.654C309.928 48.03 309.897 48.2807 309.897 48.406C309.772 48.3433 309.646 48.5313 309.521 48.97C309.458 49.346 309.364 49.6907 309.239 50.004C308.8 50.38 308.581 51.2887 308.581 52.73C307.892 54.422 307.328 56.5527 306.889 59.122C306.45 61.6913 306.294 63.6027 306.419 64.856C306.67 66.924 308.393 68.5847 311.589 69.838C313.03 70.402 314.096 70.684 314.785 70.684C315.224 70.7467 315.882 70.7153 316.759 70.59C317.699 70.4647 318.764 70.308 319.955 70.12H319.861C320.174 70.0573 321.898 69.6813 325.031 68.992C326.535 68.804 327.788 68.522 328.791 68.146C330.671 67.582 331.893 67.3 332.457 67.3C332.833 67.3 333.084 67.3627 333.209 67.488C333.71 67.864 333.961 68.334 333.961 68.898L333.773 69.744C333.585 70.2453 332.582 70.9973 330.765 72C328.948 73.0027 327.193 73.7547 325.501 74.256C324.185 74.82 322.65 75.2587 320.895 75.572C319.203 75.8853 317.542 76.042 315.913 76.042C314.221 76.042 312.968 75.8853 312.153 75.572ZM351.988 31.58C351.8 31.768 351.612 31.862 351.424 31.862C351.174 31.862 350.766 31.674 350.202 31.298C349.576 31.2353 348.73 30.7027 347.664 29.7C346.662 28.6347 346.16 27.9453 346.16 27.632C346.035 26.3787 346.223 25.0313 346.724 23.59C347.226 22.1487 348.134 21.3967 349.45 21.334C349.638 21.334 349.889 21.3967 350.202 21.522C350.516 21.5847 351.048 21.7727 351.8 22.086C351.926 22.3367 352.176 22.8693 352.552 23.684C352.991 24.4987 353.304 25.282 353.492 26.034C353.743 26.786 353.868 27.4753 353.868 28.102C353.868 29.606 353.242 30.7653 351.988 31.58ZM341.366 69.086C340.426 69.086 339.58 68.4907 338.828 67.3C338.139 66.1093 337.732 64.9187 337.606 63.728C337.857 61.3467 338.045 59.6547 338.17 58.652C338.672 56.3333 339.455 53.1687 340.52 49.158C341.648 45.0847 342.338 42.7973 342.588 42.296C342.776 41.9827 343.058 41.826 343.434 41.826C343.81 41.826 344.218 41.9513 344.656 42.202C345.095 42.4527 345.471 42.7347 345.784 43.048C346.286 43.7373 346.536 44.5207 346.536 45.398C346.536 46.714 345.91 49.4713 344.656 53.67C343.779 56.8033 343.215 59.028 342.964 60.344C342.714 61.66 342.62 63.07 342.682 64.574C342.62 65.0127 342.494 65.7647 342.306 66.83C342.181 67.8327 342.056 68.4593 341.93 68.71C341.805 68.9607 341.617 69.086 341.366 69.086ZM359.088 68.992C358.586 69.0547 357.897 68.804 357.02 68.24C356.142 67.6133 355.296 66.8613 354.481 65.984C353.792 65.044 353.228 63.3207 352.789 60.814C352.351 58.3073 352.131 55.832 352.131 53.388C352.194 51.3827 352.445 48.97 352.884 46.15C353.385 43.2673 353.792 41.074 354.105 39.57C355.045 38.5047 355.923 37.972 356.737 37.972C357.427 37.972 357.991 38.348 358.43 39.1C359.307 39.5387 359.745 40.2593 359.745 41.262C359.745 42.014 359.432 43.0793 358.805 44.458C358.805 44.7713 358.711 45.2413 358.524 45.868C358.398 46.4947 358.304 46.9333 358.241 47.184C357.74 48.0613 357.458 48.8447 357.395 49.534C357.395 49.9727 357.427 50.4113 357.489 50.85C357.615 51.2887 357.678 51.7587 357.678 52.26C357.678 53.012 357.521 53.576 357.208 53.952V53.858C357.145 54.1087 357.114 54.6413 357.114 55.456C357.114 56.6467 357.207 57.8373 357.395 59.028C357.583 60.156 357.834 60.9707 358.147 61.472C358.147 61.9733 358.429 62.224 358.993 62.224C359.62 62.224 360.435 61.8167 361.438 61.002C363.004 59.4353 364.79 57.3047 366.796 54.61C368.801 51.9153 369.678 50.3487 369.428 49.91C369.365 49.8473 369.334 49.722 369.334 49.534C369.334 49.158 369.584 48.8133 370.085 48.5C370.65 48.124 371.025 47.842 371.213 47.654C371.402 47.4033 371.59 46.996 371.778 46.432C371.966 45.868 372.122 45.4607 372.248 45.21C372.561 44.8967 372.812 44.458 373 43.894L372.906 43.612C372.906 43.2987 373.125 42.954 373.563 42.578C374.002 42.1393 374.253 41.826 374.316 41.638C374.504 40.5727 375.036 40.04 375.914 40.04C376.415 40.04 376.854 40.2593 377.23 40.698C377.668 41.074 377.919 41.5753 377.982 42.202C377.982 43.33 377.418 45.1787 376.29 47.748C375.162 50.2547 373.908 52.5107 372.529 54.516C372.279 54.9547 371.872 55.6753 371.308 56.678C370.744 57.6807 369.584 59.31 367.83 61.566C367.454 61.942 366.952 62.4433 366.326 63.07C365.762 63.6967 365.26 64.198 364.822 64.574C363.443 66.1407 362.346 67.2687 361.531 67.958C360.717 68.5847 359.902 68.9293 359.088 68.992ZM382.311 69.744C380.305 68.9293 378.895 67.8953 378.081 66.642C377.266 65.326 376.859 63.5087 376.859 61.19C376.859 60.062 376.953 58.746 377.141 57.242L377.329 53.858C377.329 53.294 377.266 52.8553 377.141 52.542C377.015 52.2287 376.733 51.884 376.295 51.508C376.169 51.3827 375.856 51.0693 375.355 50.568C374.853 50.0667 374.634 49.6593 374.697 49.346L374.603 48.876C374.603 48.4373 374.665 48.03 374.791 47.654C374.979 47.278 375.167 47.09 375.355 47.09C375.543 47.09 375.793 47.0587 376.107 46.996C376.42 46.8707 376.702 46.8393 376.953 46.902C377.83 46.902 378.269 47.09 378.269 47.466C378.519 47.9673 378.927 48.03 379.491 47.654C380.117 47.2153 380.713 46.4007 381.277 45.21C382.154 43.8313 383.439 42.39 385.131 40.886C386.885 39.3193 388.327 38.2227 389.455 37.596C389.893 37.3453 390.614 37.126 391.617 36.938C392.619 36.6873 393.497 36.562 394.249 36.562C395.377 36.562 396.348 36.8127 397.163 37.314C398.04 37.8153 398.917 38.536 399.795 39.476C400.985 40.3533 401.581 41.732 401.581 43.612C401.581 44.928 401.267 46.2753 400.641 47.654C400.39 48.594 399.387 49.7847 397.633 51.226C395.941 52.6673 394.374 53.67 392.933 54.234C391.178 54.6727 389.173 54.892 386.917 54.892C385.413 54.892 384.441 54.7667 384.003 54.516C383.251 54.0773 382.718 55.7693 382.405 59.592C382.342 60.0307 382.311 60.626 382.311 61.378C382.311 62.4433 382.467 63.2893 382.781 63.916C382.843 63.9787 383.063 64.2293 383.439 64.668C383.815 65.044 384.285 65.3887 384.849 65.702C385.413 65.9527 386.008 66.078 386.635 66.078C387.199 66.078 387.637 66.0153 387.951 65.89C388.64 65.702 389.298 65.3573 389.925 64.856C390.551 64.292 391.429 63.446 392.557 62.318C393.559 61.3153 394.28 60.626 394.719 60.25C395.032 59.686 395.659 59.404 396.599 59.404C396.849 59.404 397.288 59.4667 397.915 59.592C398.479 60.0307 398.761 60.5007 398.761 61.002C398.761 61.5033 398.447 62.4433 397.821 63.822C397.507 64.4487 396.724 65.326 395.471 66.454C394.28 67.5193 393.215 68.3653 392.275 68.992C390.332 70.0573 388.389 70.59 386.447 70.59C385.256 70.59 383.877 70.308 382.311 69.744ZM387.857 50.662C388.483 50.5367 389.392 50.38 390.583 50.192C391.773 50.004 392.745 49.5967 393.497 48.97C394.311 48.2807 395.251 47.1213 396.317 45.492C396.505 44.9907 396.599 44.4893 396.599 43.988C396.599 43.048 396.411 42.39 396.035 42.014C395.596 41.5753 395.095 41.356 394.531 41.356C393.653 41.356 392.745 41.732 391.805 42.484C391.178 42.672 390.238 43.3613 388.985 44.552C387.794 45.7427 386.76 46.9333 385.883 48.124C385.005 49.252 384.723 49.91 385.037 50.098C384.911 50.286 385.225 50.4427 385.977 50.568C386.729 50.6307 387.355 50.662 387.857 50.662ZM407.333 72.376C406.205 71.9373 405.108 71.3107 404.043 70.496C402.978 69.6187 402.257 68.8667 401.881 68.24C401.881 68.1147 401.881 67.8953 401.881 67.582C401.881 67.2687 401.975 67.0807 402.163 67.018C402.351 66.8927 402.696 66.83 403.197 66.83C404.262 66.83 405.954 66.9553 408.273 67.206C409.652 67.206 411.218 67.0493 412.973 66.736C414.728 66.36 415.699 65.9527 415.887 65.514C416.075 65.514 416.169 65.4827 416.169 65.42C416.169 65.2947 415.918 64.9813 415.417 64.48C415.292 64.48 415.01 64.386 414.571 64.198C414.132 63.9473 413.85 63.822 413.725 63.822C413.725 63.5713 413.443 63.258 412.879 62.882C412.315 62.4433 411.688 62.0673 410.999 61.754C409.182 60.25 407.897 59.1533 407.145 58.464C406.393 57.712 406.111 57.1793 406.299 56.866V56.396C405.86 56.396 405.359 55.8007 404.795 54.61C404.294 53.3567 404.043 52.1973 404.043 51.132C404.043 50.004 404.513 48.4373 405.453 46.432C406.456 44.4267 407.584 42.7973 408.837 41.544C410.592 39.9147 412.848 38.1913 415.605 36.374C418.425 34.5567 420.65 33.3973 422.279 32.896C423.344 32.4573 424.41 32.238 425.475 32.238C426.478 32.238 427.324 32.4573 428.013 32.896C428.828 33.3973 429.611 34.118 430.363 35.058C431.178 35.998 431.71 36.844 431.961 37.596C431.961 38.9747 431.804 40.322 431.491 41.638C431.24 42.8913 430.833 43.518 430.269 43.518C430.206 43.518 430.112 43.5493 429.987 43.612C429.862 43.6747 429.799 43.8313 429.799 44.082C429.799 44.3327 429.674 44.6773 429.423 45.116C429.172 45.492 428.828 45.868 428.389 46.244C427.01 47.2467 425.882 47.748 425.005 47.748C424.316 47.748 423.877 47.4033 423.689 46.714C423.564 46.5887 423.438 46.4007 423.313 46.15C423.188 45.8993 423.031 45.774 422.843 45.774C422.78 45.774 422.655 45.68 422.467 45.492C422.342 45.2413 422.279 44.928 422.279 44.552C422.279 44.364 422.342 44.176 422.467 43.988C422.655 43.7373 422.78 43.5807 422.843 43.518C423.219 43.518 423.846 42.7973 424.723 41.356C425.6 39.852 426.039 38.8493 426.039 38.348C426.039 37.972 425.976 37.7527 425.851 37.69C425.788 37.6273 425.506 37.596 425.005 37.596C420.117 39.7893 417.078 41.45 415.887 42.578C415.699 42.954 415.542 43.2047 415.417 43.33C415.354 43.4553 415.198 43.518 414.947 43.518C414.947 42.954 413.286 45.0847 409.965 49.91C409.84 50.0353 409.683 50.4113 409.495 51.038C409.37 51.6647 409.307 52.1973 409.307 52.636C409.182 53.1373 409.119 53.4193 409.119 53.482C409.119 53.7327 409.213 53.9833 409.401 54.234C409.652 54.4847 409.965 54.7667 410.341 55.08C410.717 55.3307 411.093 55.6127 411.469 55.926C414.728 58.37 416.984 60.2187 418.237 61.472C419.553 62.6627 420.336 63.6653 420.587 64.48C421.402 65.7333 421.809 66.8613 421.809 67.864C421.809 68.616 421.527 69.274 420.963 69.838C420.399 70.402 419.553 70.9347 418.425 71.436C417.736 71.7493 416.576 72 414.947 72.188C413.318 72.4387 411.72 72.564 410.153 72.564C409.276 72.564 408.336 72.5013 407.333 72.376Z" fill="url(#paint0_linear)"/>
<defs>
<linearGradient id="paint0_linear" x1="-65" y1="41" x2="483" y2="41" gradientUnits="userSpaceOnUse">
<stop offset="0.28125" stop-color="#FF7400"/>
<stop offset="1" stop-color="#F91717"/>
</linearGradient>
</defs>
</svg>
